<svg height="479pt" viewBox="-15 0 479 479.96832" width="479pt" xmlns="http://www.w3.org/2000/svg"><path d="m80.484375 223.96875h16v24h-16zm0 0"/><path d="m80.484375 263.96875h16v64h-16zm0 0"/><path d="m.484375 207.96875c0 13.253906 10.746094 24 24 24h24v96c.035156 30.914062 25.085937 55.964844 56 56h240c30.914063-.035156 55.964844-25.085938 56-56v-96h24c13.253906 0 24-10.746094 24-24s-10.746094-24-24-24h-400c-13.253906 0-24 10.746094-24 24zm432 0c0 4.417969-3.582031 8-8 8h-24v-16h24c4.417969 0 8 3.582031 8 8zm-48 16v104c-.027344 22.078125-17.917969 39.972656-40 40h-240c-22.082031-.027344-39.972656-17.921875-40-40v-128h184v40c0 13.253906 10.746094 24 24 24s24-10.746094 24-24c0-4.417969 3.582031-8 8-8s8 3.582031 8 8v32c0 13.253906 10.746094 24 24 24s24-10.746094 24-24v-72h24zm-40-24v72c0 4.417969-3.582031 8-8 8s-8-3.582031-8-8v-32c0-13.253906-10.746094-24-24-24s-24 10.746094-24 24c0 4.417969-3.582031 8-8 8s-8-3.582031-8-8v-40zm-296 16h-24c-4.417969 0-8-3.582031-8-8s3.582031-8 8-8h24zm0 0"/><path d="m94.316406 90.929688c-30.390625 5.652343-50.472656 34.835937-44.894531 65.238281.808594 4.339843 4.976563 7.203125 9.316406 6.398437l330.402344-61.054687c4.339844-.808594 7.203125-4.980469 6.398437-9.320313-5.617187-30.414062-34.832031-50.519531-65.246093-44.894531l-86.527344 16-2.914063-15.730469c12.949219-2.488281 21.464844-14.960937 19.070313-27.925781-2.394531-12.96875-14.804687-21.574219-27.789063-19.273437l-62.914062 11.601562c-12.207031 2.234375-20.699219 13.410156-19.582031 25.773438 1.121093 12.359374 11.484375 21.828124 23.894531 21.835937 1.480469-.003906 2.960938-.140625 4.417969-.410156l2.902343 15.738281zm238.910156-27.882813c18.695313-3.460937 37.246094 6.71875 44.371094 24.34375l-313.113281 57.859375c.386719-18.996094 14.058594-35.113281 32.734375-38.59375l118-21.800781 23.601562-4.367188zm-164.183593-20.855469c-2.664063-1.832031-3.960938-5.09375-3.285157-8.253906.671876-3.164062 3.183594-5.613281 6.367188-6.203125l62.933594-11.628906c.488281-.089844.980468-.136719 1.472656-.136719 4.144531-.007812 7.609375 3.148438 7.984375 7.277344.371094 4.125-2.464844 7.855468-6.542969 8.59375l-7.863281 1.457031-23.601563 4.359375-31.464843 5.816406c-2.089844.386719-4.25-.074218-6-1.28125zm24.632812 14.105469 15.738281-2.914063 15.726563-2.902343 2.910156 15.726562-15.734375 2.914063-15.726562 2.902344zm0 0"/><path d="m392.484375 479.96875v-16h-20.449219c2.878906-4.84375 4.414063-10.367188 4.449219-16-.015625-6.921875-2.261719-13.652344-6.398437-19.199219l-19.203126-25.601562c-1.574218-1.914063-3.921874-3.023438-6.398437-3.023438s-4.824219 1.109375-6.398437 3.023438l-19.203126 25.601562c-4.136718 5.546875-6.382812 12.277344-6.398437 19.199219.03125 5.632812 1.570313 11.15625 4.449219 16h-24.898438c2.878906-4.84375 4.414063-10.367188 4.449219-16-.015625-6.921875-2.261719-13.652344-6.398437-19.199219l-19.203126-25.601562c-1.574218-1.914063-3.921874-3.023438-6.398437-3.023438s-4.824219 1.109375-6.398437 3.023438l-19.203126 25.601562c-4.136718 5.546875-6.382812 12.277344-6.398437 19.199219.03125 5.632812 1.570313 11.15625 4.449219 16h-24.898438c2.878906-4.84375 4.414063-10.367188 4.449219-16-.015625-6.921875-2.261719-13.652344-6.398437-19.199219l-19.203126-25.601562c-1.574218-1.914063-3.921874-3.023438-6.398437-3.023438s-4.824219 1.109375-6.398437 3.023438l-19.203126 25.601562c-4.136718 5.546875-6.382812 12.277344-6.398437 19.199219.03125 5.632812 1.570313 11.15625 4.449219 16h-24.898438c2.878906-4.84375 4.414063-10.367188 4.449219-16-.015625-6.921875-2.261719-13.652344-6.398437-19.199219l-19.203126-25.601562c-1.574218-1.914063-3.921874-3.023438-6.398437-3.023438s-4.824219 1.109375-6.398437 3.023438l-19.203126 25.601562c-4.136718 5.546875-6.382812 12.277344-6.398437 19.199219.03125 5.632812 1.570313 11.15625 4.449219 16h-20.449219v16zm-64-32c.011719-3.460938 1.132813-6.824219 3.199219-9.601562l12.800781-17.0625 12.800781 17.0625c4.175782 5.570312 4.273438 13.199218.238282 18.875-4.035157 5.671874-11.273438 8.085937-17.90625 5.96875-6.632813-2.117188-11.132813-8.28125-11.132813-15.242188zm-80 0c.011719-3.460938 1.132813-6.824219 3.199219-9.601562l12.800781-17.0625 12.800781 17.0625c4.175782 5.570312 4.273438 13.199218.238282 18.875-4.035157 5.671874-11.273438 8.085937-17.90625 5.96875-6.632813-2.117188-11.132813-8.28125-11.132813-15.242188zm-80 0c.011719-3.460938 1.132813-6.824219 3.199219-9.601562l12.800781-17.0625 12.800781 17.0625c4.175782 5.570312 4.273438 13.199218.238282 18.875-4.035157 5.671874-11.273438 8.085937-17.90625 5.96875-6.632813-2.117188-11.132813-8.28125-11.132813-15.242188zm-80 0c.011719-3.460938 1.132813-6.824219 3.199219-9.601562l12.800781-17.0625 12.800781 17.0625c4.175782 5.570312 4.273438 13.199218.238282 18.875-4.035157 5.671874-11.273438 8.085937-17.90625 5.96875-6.632813-2.117188-11.132813-8.28125-11.132813-15.242188zm0 0"/></svg>