<?xml version="1.0" encoding="UTF-8"?>
<svg xmlns="http://www.w3.org/2000/svg" xmlns:xlink="http://www.w3.org/1999/xlink" width="40pt" height="40pt" viewBox="0 0 40 40" version="1.1">
<g id="surface1">
<path style=" stroke:none;fill-rule:nonzero;fill:rgb(0%,0%,0%);fill-opacity:1;" d="M 7.996094 18.65625 L 9.328125 18.65625 L 9.328125 20.65625 L 7.996094 20.65625 Z M 7.996094 18.65625 "/>
<path style=" stroke:none;fill-rule:nonzero;fill:rgb(0%,0%,0%);fill-opacity:1;" d="M 7.996094 21.988281 L 9.328125 21.988281 L 9.328125 27.320312 L 7.996094 27.320312 Z M 7.996094 21.988281 "/>
<path style=" stroke:none;fill-rule:nonzero;fill:rgb(0%,0%,0%);fill-opacity:1;" d="M 1.332031 17.324219 C 1.332031 18.429688 2.226562 19.324219 3.328125 19.324219 L 5.328125 19.324219 L 5.328125 27.320312 C 5.332031 29.894531 7.417969 31.984375 9.992188 31.984375 L 29.988281 31.984375 C 32.5625 31.984375 34.648438 29.894531 34.652344 27.320312 L 34.652344 19.324219 L 36.652344 19.324219 C 37.753906 19.324219 38.652344 18.429688 38.652344 17.324219 C 38.652344 16.21875 37.753906 15.324219 36.652344 15.324219 L 3.328125 15.324219 C 2.226562 15.324219 1.332031 16.21875 1.332031 17.324219 Z M 37.316406 17.324219 C 37.316406 17.691406 37.019531 17.992188 36.652344 17.992188 L 34.652344 17.992188 L 34.652344 16.660156 L 36.652344 16.660156 C 37.019531 16.660156 37.316406 16.957031 37.316406 17.324219 Z M 33.320312 18.65625 L 33.320312 27.320312 C 33.316406 29.160156 31.828125 30.652344 29.988281 30.652344 L 9.992188 30.652344 C 8.15625 30.652344 6.664062 29.160156 6.660156 27.320312 L 6.660156 16.660156 L 21.988281 16.660156 L 21.988281 19.992188 C 21.988281 21.09375 22.886719 21.988281 23.988281 21.988281 C 25.09375 21.988281 25.988281 21.09375 25.988281 19.992188 C 25.988281 19.621094 26.285156 19.324219 26.65625 19.324219 C 27.023438 19.324219 27.320312 19.621094 27.320312 19.992188 L 27.320312 22.65625 C 27.320312 23.761719 28.214844 24.65625 29.320312 24.65625 C 30.425781 24.65625 31.320312 23.761719 31.320312 22.65625 L 31.320312 16.660156 L 33.320312 16.660156 Z M 29.988281 16.660156 L 29.988281 22.65625 C 29.988281 23.023438 29.6875 23.324219 29.320312 23.324219 C 28.953125 23.324219 28.652344 23.023438 28.652344 22.65625 L 28.652344 19.992188 C 28.652344 18.886719 27.757812 17.992188 26.65625 17.992188 C 25.550781 17.992188 24.65625 18.886719 24.65625 19.992188 C 24.65625 20.359375 24.355469 20.65625 23.988281 20.65625 C 23.621094 20.65625 23.324219 20.359375 23.324219 19.992188 L 23.324219 16.660156 Z M 5.328125 17.992188 L 3.328125 17.992188 C 2.960938 17.992188 2.664062 17.691406 2.664062 17.324219 C 2.664062 16.957031 2.960938 16.660156 3.328125 16.660156 L 5.328125 16.660156 Z M 5.328125 17.992188 "/>
<path style=" stroke:none;fill-rule:nonzero;fill:rgb(0%,0%,0%);fill-opacity:1;" d="M 9.148438 7.574219 C 6.613281 8.046875 4.941406 10.476562 5.40625 13.007812 C 5.472656 13.371094 5.820312 13.609375 6.183594 13.542969 L 33.707031 8.457031 C 34.070312 8.390625 34.308594 8.042969 34.238281 7.679688 C 33.773438 5.144531 31.339844 3.472656 28.804688 3.941406 L 21.597656 5.273438 L 21.355469 3.960938 C 22.433594 3.753906 23.140625 2.714844 22.941406 1.636719 C 22.742188 0.554688 21.710938 -0.160156 20.628906 0.03125 L 15.386719 0.996094 C 14.371094 1.183594 13.664062 2.113281 13.753906 3.144531 C 13.847656 4.171875 14.710938 4.960938 15.746094 4.964844 C 15.867188 4.960938 15.992188 4.953125 16.113281 4.929688 L 16.355469 6.238281 Z M 29.050781 5.253906 C 30.605469 4.964844 32.152344 5.8125 32.746094 7.28125 L 6.660156 12.101562 C 6.695312 10.515625 7.832031 9.175781 9.386719 8.886719 L 19.21875 7.070312 L 21.183594 6.703125 Z M 15.371094 3.515625 C 15.148438 3.363281 15.042969 3.089844 15.097656 2.828125 C 15.152344 2.5625 15.363281 2.359375 15.628906 2.308594 L 20.871094 1.339844 C 20.910156 1.335938 20.953125 1.332031 20.992188 1.332031 C 21.339844 1.328125 21.628906 1.59375 21.660156 1.9375 C 21.691406 2.28125 21.453125 2.589844 21.113281 2.652344 L 20.457031 2.773438 L 18.492188 3.136719 L 15.871094 3.621094 C 15.699219 3.652344 15.519531 3.617188 15.371094 3.515625 Z M 17.425781 4.691406 L 18.734375 4.445312 L 20.046875 4.207031 L 20.289062 5.515625 L 18.976562 5.757812 L 17.667969 6 Z M 17.425781 4.691406 "/>
<path style=" stroke:none;fill-rule:nonzero;fill:rgb(0%,0%,0%);fill-opacity:1;" d="M 33.984375 39.984375 L 33.984375 38.652344 L 32.28125 38.652344 C 32.523438 38.246094 32.648438 37.785156 32.652344 37.316406 C 32.652344 36.742188 32.464844 36.179688 32.121094 35.71875 L 30.519531 33.585938 C 30.390625 33.425781 30.191406 33.332031 29.988281 33.332031 C 29.78125 33.332031 29.585938 33.425781 29.453125 33.585938 L 27.855469 35.71875 C 27.507812 36.179688 27.324219 36.742188 27.320312 37.316406 C 27.324219 37.785156 27.453125 38.246094 27.691406 38.652344 L 25.617188 38.652344 C 25.859375 38.246094 25.984375 37.785156 25.988281 37.316406 C 25.988281 36.742188 25.800781 36.179688 25.457031 35.71875 L 23.855469 33.585938 C 23.722656 33.425781 23.527344 33.332031 23.324219 33.332031 C 23.117188 33.332031 22.921875 33.425781 22.789062 33.585938 L 21.191406 35.71875 C 20.84375 36.179688 20.65625 36.742188 20.65625 37.316406 C 20.660156 37.785156 20.789062 38.246094 21.027344 38.652344 L 18.953125 38.652344 C 19.191406 38.246094 19.320312 37.785156 19.324219 37.316406 C 19.324219 36.742188 19.136719 36.179688 18.789062 35.71875 L 17.191406 33.585938 C 17.058594 33.425781 16.863281 33.332031 16.65625 33.332031 C 16.453125 33.332031 16.257812 33.425781 16.125 33.585938 L 14.527344 35.71875 C 14.179688 36.179688 13.992188 36.742188 13.992188 37.316406 C 13.996094 37.785156 14.125 38.246094 14.363281 38.652344 L 12.289062 38.652344 C 12.527344 38.246094 12.65625 37.785156 12.660156 37.316406 C 12.660156 36.742188 12.472656 36.179688 12.125 35.71875 L 10.527344 33.585938 C 10.394531 33.425781 10.199219 33.332031 9.992188 33.332031 C 9.789062 33.332031 9.59375 33.425781 9.460938 33.585938 L 7.859375 35.71875 C 7.515625 36.179688 7.328125 36.742188 7.328125 37.316406 C 7.332031 37.785156 7.457031 38.246094 7.699219 38.652344 L 5.996094 38.652344 L 5.996094 39.984375 Z M 28.652344 37.316406 C 28.65625 37.03125 28.75 36.75 28.921875 36.519531 L 29.988281 35.097656 L 31.054688 36.519531 C 31.402344 36.980469 31.410156 37.617188 31.074219 38.089844 C 30.738281 38.5625 30.132812 38.765625 29.582031 38.585938 C 29.027344 38.410156 28.652344 37.898438 28.652344 37.316406 Z M 21.988281 37.316406 C 21.992188 37.03125 22.085938 36.75 22.257812 36.519531 L 23.324219 35.097656 L 24.390625 36.519531 C 24.738281 36.980469 24.746094 37.617188 24.410156 38.089844 C 24.074219 38.5625 23.46875 38.765625 22.917969 38.585938 C 22.363281 38.410156 21.988281 37.898438 21.988281 37.316406 Z M 15.324219 37.316406 C 15.328125 37.03125 15.417969 36.75 15.59375 36.519531 L 16.65625 35.097656 L 17.722656 36.519531 C 18.074219 36.980469 18.082031 37.617188 17.746094 38.089844 C 17.410156 38.5625 16.804688 38.765625 16.253906 38.585938 C 15.699219 38.410156 15.324219 37.898438 15.324219 37.316406 Z M 8.660156 37.316406 C 8.660156 37.03125 8.753906 36.75 8.925781 36.519531 L 9.992188 35.097656 L 11.058594 36.519531 C 11.40625 36.980469 11.417969 37.617188 11.078125 38.089844 C 10.742188 38.5625 10.140625 38.765625 9.589844 38.585938 C 9.035156 38.410156 8.660156 37.898438 8.660156 37.316406 Z M 8.660156 37.316406 "/>
</g>
</svg>
