<?xml version="1.0" encoding="UTF-8"?>
<svg xmlns="http://www.w3.org/2000/svg" xmlns:xlink="http://www.w3.org/1999/xlink" width="40pt" height="40pt" viewBox="0 0 40 40" version="1.1">
<g id="surface1">
<path style=" stroke:none;fill-rule:nonzero;fill:rgb(0%,0%,0%);fill-opacity:1;" d="M 39.804688 3.527344 L 36.472656 0.195312 C 36.210938 -0.0625 35.789062 -0.0625 35.527344 0.195312 L 32.332031 3.390625 L 29.964844 1.023438 C 29.019531 0.0742188 27.613281 -0.246094 26.351562 0.195312 C 25.085938 0.636719 24.1875 1.765625 24.039062 3.097656 L 21.964844 1.023438 C 20.601562 -0.339844 18.390625 -0.339844 17.023438 1.023438 C 15.660156 2.390625 15.660156 4.601562 17.023438 5.964844 L 23.390625 12.332031 L 12.335938 23.390625 L 5.96875 17.023438 C 4.601562 15.660156 2.390625 15.660156 1.023438 17.023438 C -0.339844 18.390625 -0.339844 20.601562 1.027344 21.964844 L 3.097656 24.039062 C 1.769531 24.1875 0.640625 25.085938 0.195312 26.351562 C -0.246094 27.613281 0.078125 29.019531 1.023438 29.964844 L 3.390625 32.332031 L 0.195312 35.527344 C -0.0625 35.789062 -0.0625 36.210938 0.195312 36.472656 L 3.53125 39.804688 C 3.789062 40.0625 4.210938 40.0625 4.472656 39.804688 L 7.667969 36.609375 L 10.035156 38.976562 C 10.980469 39.925781 12.386719 40.246094 13.648438 39.804688 C 14.914062 39.363281 15.8125 38.234375 15.960938 36.902344 L 18.035156 38.976562 C 19.398438 40.339844 21.613281 40.339844 22.976562 38.976562 C 24.339844 37.609375 24.339844 35.398438 22.976562 34.035156 L 16.609375 27.667969 L 27.667969 16.609375 L 34.035156 22.976562 C 35.398438 24.339844 37.613281 24.339844 38.976562 22.976562 C 40.339844 21.609375 40.339844 19.398438 38.976562 18.035156 L 36.902344 15.960938 C 38.234375 15.8125 39.363281 14.914062 39.804688 13.648438 C 40.246094 12.386719 39.925781 10.980469 38.976562 10.035156 L 36.609375 7.667969 L 39.804688 4.472656 C 40.066406 4.210938 40.066406 3.789062 39.804688 3.527344 Z M 4 38.390625 L 1.609375 36 L 4.335938 33.277344 L 6.726562 35.667969 Z M 12.503906 38.667969 C 11.933594 38.667969 11.382812 38.441406 10.976562 38.035156 L 1.96875 29.023438 C 1.125 28.179688 1.125 26.808594 1.96875 25.964844 C 2.8125 25.121094 4.179688 25.121094 5.023438 25.964844 L 14.035156 34.976562 C 14.652344 35.59375 14.835938 36.523438 14.503906 37.332031 C 14.167969 38.140625 13.378906 38.667969 12.503906 38.667969 Z M 22.667969 36.503906 C 22.667969 37.378906 22.140625 38.167969 21.332031 38.503906 C 20.523438 38.835938 19.59375 38.652344 18.976562 38.035156 L 5.96875 25.023438 L 1.96875 21.023438 C 1.125 20.179688 1.125 18.8125 1.96875 17.964844 C 2.8125 17.121094 4.179688 17.121094 5.023438 17.96875 L 22.035156 34.976562 C 22.441406 35.382812 22.667969 35.929688 22.667969 36.503906 Z M 15.667969 26.722656 L 13.277344 24.332031 L 24.332031 13.277344 L 26.722656 15.667969 Z M 38.667969 20.503906 C 38.667969 21.378906 38.140625 22.167969 37.332031 22.5 C 36.523438 22.835938 35.59375 22.652344 34.976562 22.03125 L 17.964844 5.023438 C 17.140625 4.175781 17.148438 2.820312 17.984375 1.984375 C 18.824219 1.144531 20.175781 1.136719 21.023438 1.964844 L 38.035156 18.976562 C 38.441406 19.382812 38.667969 19.929688 38.667969 20.503906 Z M 38.667969 12.503906 C 38.667969 13.378906 38.140625 14.167969 37.332031 14.503906 C 36.523438 14.835938 35.59375 14.652344 34.976562 14.035156 L 25.964844 5.023438 C 25.136719 4.175781 25.148438 2.820312 25.984375 1.984375 C 26.820312 1.144531 28.175781 1.136719 29.023438 1.964844 L 38.035156 10.976562 C 38.441406 11.382812 38.667969 11.933594 38.667969 12.503906 Z M 35.667969 6.722656 L 33.277344 4.332031 L 36 1.609375 L 38.390625 4 Z M 35.667969 6.722656 "/>
</g>
</svg>
