<?xml version="1.0" encoding="UTF-8"?>
<svg xmlns="http://www.w3.org/2000/svg" xmlns:xlink="http://www.w3.org/1999/xlink" width="40pt" height="40pt" viewBox="0 0 40 40" version="1.1">
<g id="surface1">
<path style=" stroke:none;fill-rule:nonzero;fill:rgb(0%,0%,0%);fill-opacity:1;" d="M 38.265625 6.648438 C 37.460938 6.003906 36.375 5.820312 35.398438 6.164062 C 34.425781 6.503906 33.695312 7.328125 33.46875 8.335938 C 33.238281 9.355469 33.558594 10.421875 34.3125 11.144531 L 33.800781 13.449219 L 32.300781 10.695312 L 31.609375 9.429688 C 30.902344 8.132812 29.546875 7.328125 28.070312 7.328125 L 25.15625 7.328125 C 25.324219 7.097656 25.460938 6.84375 25.5625 6.574219 L 26.40625 4.253906 C 26.503906 3.976562 26.5625 3.683594 26.582031 3.390625 C 26.582031 3.386719 26.585938 3.378906 26.585938 3.375 C 26.585938 3.367188 26.585938 3.34375 26.585938 3.332031 C 26.597656 3.128906 26.589844 2.925781 26.5625 2.726562 C 26.535156 2.519531 26.484375 2.316406 26.414062 2.121094 C 26.410156 2.113281 26.410156 2.101562 26.40625 2.09375 C 26.335938 1.902344 26.25 1.722656 26.144531 1.546875 C 26.132812 1.527344 26.121094 1.511719 26.109375 1.492188 C 26.082031 1.445312 26.054688 1.398438 26.023438 1.351562 C 25.9375 1.230469 25.847656 1.117188 25.746094 1.011719 C 25.742188 1.007812 25.738281 1.003906 25.734375 1 C 25.730469 0.996094 25.714844 0.980469 25.707031 0.972656 C 25.578125 0.839844 25.441406 0.722656 25.292969 0.613281 C 25.269531 0.597656 25.246094 0.574219 25.222656 0.558594 C 25.078125 0.460938 24.929688 0.378906 24.769531 0.304688 C 24.71875 0.28125 24.667969 0.257812 24.613281 0.234375 C 24.457031 0.171875 24.292969 0.121094 24.125 0.0820312 C 24.082031 0.0703125 24.039062 0.0664062 23.992188 0.0585938 C 22.472656 -0.238281 20.960938 0.625 20.445312 2.085938 L 19.601562 4.40625 C 19.527344 4.613281 19.472656 4.832031 19.445312 5.050781 L 19.441406 5.066406 L 19.441406 5.074219 C 19.335938 5.859375 19.527344 6.65625 19.984375 7.308594 C 19.988281 7.316406 19.992188 7.320312 20 7.328125 L 15.164062 7.328125 C 13.886719 7.324219 12.636719 7.714844 11.589844 8.445312 L 10.355469 9.296875 L 6.015625 12.304688 C 4.800781 13.148438 4.289062 14.695312 4.753906 16.101562 C 5.933594 19.609375 6.324219 20.761719 6.417969 21.050781 C 6.550781 21.785156 6.925781 22.457031 7.484375 22.953125 C 7.542969 23.0625 7.628906 23.15625 7.738281 23.21875 C 8.292969 23.714844 9.007812 23.988281 9.75 23.988281 C 9.953125 23.988281 10.152344 23.96875 10.351562 23.929688 C 11.808594 23.628906 12.828125 22.304688 12.742188 20.820312 C 12.65625 19.332031 11.492188 18.132812 10.007812 18.003906 L 9.507812 16.246094 L 12.890625 13.664062 L 13.5625 13.328125 L 15.660156 13.328125 L 14.105469 21.105469 L 11.519531 26.277344 L 10.265625 28.78125 L 3.371094 31.246094 L 1.191406 32.027344 C 0.878906 32.136719 0.695312 32.460938 0.761719 32.785156 L 2.09375 39.449219 C 2.15625 39.761719 2.429688 39.984375 2.746094 39.984375 L 4.078125 39.984375 C 4.410156 39.984375 4.691406 39.738281 4.738281 39.410156 L 5.339844 35.207031 L 14.214844 33.304688 C 14.363281 33.273438 14.5 33.1875 14.59375 33.070312 L 17.207031 29.804688 L 19.554688 26.871094 L 23.570312 29.429688 L 26.265625 31.140625 L 30.644531 37.46875 L 32.1875 39.695312 C 32.390625 39.988281 32.785156 40.070312 33.085938 39.882812 L 38.417969 36.550781 C 38.710938 36.367188 38.816406 35.992188 38.664062 35.683594 L 37.996094 34.351562 C 37.855469 34.070312 37.539062 33.925781 37.238281 34 L 35.058594 34.546875 L 30.644531 26.988281 C 30.609375 26.929688 30.566406 26.875 30.511719 26.828125 L 27.320312 23.953125 L 24.179688 21.125 L 26.910156 13.324219 L 27.007812 13.324219 L 27.761719 14.703125 L 29.851562 18.539062 C 30.652344 20.007812 32.273438 20.835938 33.933594 20.625 C 35.59375 20.414062 36.953125 19.203125 37.359375 17.582031 L 39.378906 9.488281 C 39.402344 9.402344 39.402344 9.3125 39.386719 9.226562 C 39.394531 9.148438 39.398438 9.070312 39.398438 8.996094 C 39.402344 8.082031 38.984375 7.214844 38.265625 6.648438 Z M 22.738281 8.660156 C 22.738281 9.398438 22.144531 9.992188 21.40625 9.992188 C 20.671875 9.992188 20.074219 9.398438 20.074219 8.660156 Z M 23.425781 1.332031 C 23.5625 1.332031 23.699219 1.347656 23.835938 1.378906 C 23.882812 1.390625 23.925781 1.40625 23.96875 1.421875 C 24.050781 1.445312 24.132812 1.476562 24.210938 1.511719 C 24.265625 1.539062 24.3125 1.566406 24.363281 1.597656 C 24.429688 1.636719 24.492188 1.679688 24.550781 1.726562 C 24.601562 1.765625 24.648438 1.804688 24.691406 1.847656 C 24.738281 1.898438 24.78125 1.949219 24.824219 2 C 24.878906 2.066406 24.929688 2.132812 24.972656 2.203125 C 25.003906 2.253906 25.03125 2.304688 25.054688 2.359375 C 25.097656 2.441406 25.132812 2.527344 25.164062 2.613281 C 25.167969 2.628906 25.171875 2.648438 25.175781 2.664062 L 22.738281 2.664062 C 22.484375 2.660156 22.253906 2.804688 22.140625 3.03125 C 21.914062 3.484375 21.558594 3.859375 21.121094 4.109375 L 21.695312 2.539062 C 21.960938 1.8125 22.652344 1.332031 23.425781 1.332031 Z M 21.074219 6.542969 C 20.894531 6.289062 20.785156 5.988281 20.753906 5.679688 L 20.789062 5.667969 C 21.75 5.429688 22.585938 4.832031 23.125 3.996094 L 25.082031 3.996094 L 24.308594 6.117188 C 24.042969 6.84375 23.351562 7.328125 22.582031 7.328125 C 21.980469 7.332031 21.414062 7.039062 21.074219 6.542969 Z M 8.339844 15.460938 C 8.121094 15.628906 8.027344 15.910156 8.105469 16.175781 L 8.871094 18.863281 C 8.960938 19.171875 9.257812 19.375 9.578125 19.34375 L 9.742188 19.324219 C 10.496094 19.324219 11.152344 19.828125 11.351562 20.550781 C 11.546875 21.277344 11.238281 22.042969 10.589844 22.425781 C 9.941406 22.808594 9.121094 22.707031 8.582031 22.183594 C 8.566406 22.164062 8.550781 22.148438 8.535156 22.128906 C 8.257812 21.835938 7.742188 21.292969 7.742188 20.933594 C 7.742188 20.8125 7.742188 20.8125 6.015625 15.679688 C 5.734375 14.835938 6.042969 13.90625 6.773438 13.398438 L 10.507812 10.8125 L 11.675781 12.914062 Z M 3.292969 38.652344 L 2.179688 33.085938 L 3.222656 32.714844 L 4.058594 34.738281 L 3.5 38.652344 Z M 13.703125 32.054688 L 5.148438 33.882812 L 4.484375 32.265625 L 10.96875 29.949219 C 11.132812 29.890625 11.265625 29.773438 11.34375 29.617188 L 12.390625 27.527344 L 13.277344 28.070312 L 15.699219 29.5625 Z M 18.886719 25.574219 L 16.535156 28.515625 L 15.570312 27.921875 L 12.984375 26.328125 L 15.152344 21.988281 L 23.152344 21.988281 L 26.003906 24.558594 L 23.863281 27.769531 L 23.738281 27.953125 L 19.765625 25.425781 C 19.476562 25.242188 19.097656 25.304688 18.886719 25.570312 Z M 37.199219 35.742188 L 32.921875 38.414062 L 32.179688 37.339844 L 34.96875 35.945312 L 37.042969 35.429688 Z M 33.800781 35.039062 L 31.414062 36.234375 L 27.285156 30.273438 C 27.238281 30.199219 27.171875 30.140625 27.097656 30.089844 L 24.863281 28.671875 L 26.164062 26.722656 L 27.003906 25.453125 L 29.546875 27.746094 Z M 26.4375 11.992188 C 26.15625 11.992188 25.902344 12.171875 25.808594 12.441406 L 22.933594 20.65625 L 15.554688 20.65625 L 17.128906 12.792969 C 17.167969 12.597656 17.117188 12.394531 16.992188 12.238281 C 16.863281 12.082031 16.675781 11.992188 16.476562 11.992188 L 13.410156 11.992188 C 13.304688 11.992188 13.203125 12.015625 13.109375 12.0625 L 12.8125 12.210938 L 11.613281 10.050781 L 12.347656 9.539062 C 13.171875 8.964844 14.15625 8.660156 15.164062 8.660156 L 18.742188 8.660156 C 18.742188 10.132812 19.933594 11.328125 21.40625 11.328125 C 22.878906 11.328125 24.070312 10.132812 24.070312 8.660156 L 28.070312 8.660156 C 29.058594 8.660156 29.96875 9.199219 30.441406 10.070312 L 30.890625 10.894531 L 30.699219 11.089844 L 28.5 13.285156 L 27.984375 12.339844 C 27.871094 12.128906 27.648438 11.996094 27.40625 11.992188 Z M 38.039062 9.234375 C 38.035156 9.277344 38.035156 9.324219 38.039062 9.367188 L 36.0625 17.257812 C 35.792969 18.347656 34.878906 19.160156 33.765625 19.300781 C 32.648438 19.445312 31.5625 18.890625 31.023438 17.902344 L 29.167969 14.503906 L 31.558594 12.113281 L 33.484375 15.648438 C 33.617188 15.890625 33.886719 16.027344 34.160156 15.988281 C 34.4375 15.949219 34.660156 15.742188 34.71875 15.472656 L 35.703125 11.039062 C 35.761719 10.777344 35.65625 10.507812 35.4375 10.351562 C 34.792969 9.894531 34.558594 9.050781 34.875 8.328125 C 35.191406 7.601562 35.96875 7.199219 36.742188 7.363281 C 37.515625 7.523438 38.066406 8.203125 38.066406 8.996094 C 38.0625 9.074219 38.054688 9.15625 38.039062 9.234375 Z M 38.039062 9.234375 "/>
<path style=" stroke:none;fill-rule:nonzero;fill:rgb(0%,0%,0%);fill-opacity:1;" d="M 22.074219 12.660156 L 24.738281 12.660156 L 24.738281 13.992188 L 22.074219 13.992188 Z M 22.074219 12.660156 "/>
</g>
</svg>
